<mxfile host="app.diagrams.net" modified="2021-05-21T15:34:33.207Z" agent="5.0 (Windows NT 10.0; Win64; x64) AppleWebKit/537.36 (KHTML, like Gecko) Chrome/92.0.4515.0 Safari/537.36" etag="vOpito0a6VoQRzFHUA0Q" version="14.6.13" type="github">
  <diagram id="Ul5Ot3bxFoBOUtaAG98L" name="Page-1">
    <mxGraphModel dx="1145" dy="553" grid="1" gridSize="10" guides="1" tooltips="1" connect="1" arrows="1" fold="1" page="1" pageScale="1" pageWidth="827" pageHeight="1169" math="0" shadow="0">
      <root>
        <mxCell id="0" />
        <mxCell id="1" parent="0" />
        <mxCell id="HW89lJfSW6W3XiBtcc8C-1" value="" style="swimlane;html=1;childLayout=stackLayout;resizeParent=1;resizeParentMax=0;horizontal=1;startSize=20;horizontalStack=0;" parent="1" vertex="1">
          <mxGeometry x="90" y="10" width="860" height="890" as="geometry" />
        </mxCell>
        <mxCell id="HW89lJfSW6W3XiBtcc8C-2" value="UsuÃ¡rio" style="swimlane;html=1;startSize=20;horizontal=0;" parent="HW89lJfSW6W3XiBtcc8C-1" vertex="1">
          <mxGeometry y="20" width="860" height="310" as="geometry" />
        </mxCell>
        <mxCell id="HW89lJfSW6W3XiBtcc8C-3" value="Central de Atendimento / Suporte Nivel 1" style="swimlane;html=1;startSize=20;horizontal=0;" parent="HW89lJfSW6W3XiBtcc8C-1" vertex="1">
          <mxGeometry y="330" width="860" height="330" as="geometry" />
        </mxCell>
        <mxCell id="HW89lJfSW6W3XiBtcc8C-4" value="Suporte Nivel 2" style="swimlane;html=1;startSize=20;horizontal=0;" parent="HW89lJfSW6W3XiBtcc8C-1" vertex="1">
          <mxGeometry y="660" width="860" height="230" as="geometry" />
        </mxCell>
        <mxCell id="H0gLCjWkoF_0PNR6tfpx-1" value="Suporte Nivel 3" style="swimlane;html=1;startSize=20;horizontal=0;" vertex="1" parent="1">
          <mxGeometry x="90" y="900" width="860" height="230" as="geometry" />
        </mxCell>
      </root>
    </mxGraphModel>
  </diagram>
</mxfile>
